<mxfile host="app.diagrams.net" modified="2023-10-27T23:38:39.240Z" agent="Mozilla/5.0 (Windows NT 10.0; Win64; x64) AppleWebKit/537.36 (KHTML, like Gecko) Chrome/118.0.0.0 Safari/537.36" version="22.0.8" etag="qI6cG1zbvvKsORjWBa7U" type="github">
  <diagram name="Страница — 1" id="6lEGapyFbBg7cS3Egpnf">
    <mxGraphModel>
      <root>
        <mxCell id="0" />
        <mxCell id="1" parent="0" />
      </root>
    </mxGraphModel>
  </diagram>
</mxfile>
